# xmcd CD database file generated by OrangeCD 5.1
#
# Track frame offsets:
#	150
#	20087
#	32420
#	43585
#	55745
#	67795
#	79550
#	93892
#	106207
#	123037
#	136447
#	150415
#	164417
#	177210
#	193802
#	203410
#	216695
#	232945
#	245677
#	259362
#	274957
#	291830
#	304722
#	320132
#
# Disc length: 4510 seconds
#
# Revision: 0
# Processed by: cddbd v1.4PL0 Copyright (c) Steve Scherf et al.
# Submitted via: OrangeCD 5.1
#
DISCID=51119c18
DTITLE=Stella Parton - Anthology
DYEAR=1998
DGENRE=Country
TTITLE0=I Wanna Hold You In My Dreams Tonight
TTITLE1=I'm Not That Good At Goodbye
TTITLE2=Danger Of A Stranger
TTITLE3=Standard Lie Number One
TTITLE4=Stormy Weather
TTITLE5=Steady As The Rain
TTITLE6=Room At The Top Of The Stairs
TTITLE7=Young Love
TTITLE8=Cross My Heart
TTITLE9=I Don't Miss You Like I Used To
TTITLE10=Lie To Linda
TTITLE11=Something To Go By
TTITLE12=Legs
TTITLE13=Valley Of Desire
TTITLE14=You're The Reason
TTITLE15=Like Lovers Do
TTITLE16=Picture In A Frame
TTITLE17=You Said You Loved Me
TTITLE18=Fragile
TTITLE19=My Dreams Came True Overnight
TTITLE20=Mandolin Rain
TTITLE21=When The Fire Went Out
TTITLE22=The Sun Don't Shine In Memphis
TTITLE23=We Are Gypsies
EXTD=
EXTT0=
EXTT1=
EXTT2=
EXTT3=
EXTT4=
EXTT5=
EXTT6=
EXTT7=
EXTT8=
EXTT9=
EXTT10=
EXTT11=
EXTT12=
EXTT13=
EXTT14=
EXTT15=
EXTT16=
EXTT17=
EXTT18=
EXTT19=
EXTT20=
EXTT21=
EXTT22=
EXTT23=
PLAYORDER=
